<?xml version="1.0" standalone="no"?>
<!DOCTYPE svg PUBLIC "-//W3C//DTD SVG 20010904//EN"
 "http://www.w3.org/TR/2001/REC-SVG-20010904/DTD/svg10.dtd">
<svg version="1.0" xmlns="http://www.w3.org/2000/svg"
 width="363.000000pt" height="380.000000pt" viewBox="0 0 363.000000 380.000000"
 preserveAspectRatio="xMidYMid meet">

<g transform="translate(0.000000,380.000000) scale(0.100000,-0.100000)"
fill="#000000" stroke="none">
<path d="M1908 3741 c-60 -38 -92 -103 -86 -169 5 -43 176 -492 188 -492 3 0
47 107 98 238 82 208 93 243 89 284 -13 138 -170 214 -289 139z m161 -107 c74
-62 7 -174 -85 -144 -67 22 -85 92 -37 142 35 37 80 37 122 2z"/>
<path d="M780 2882 c0 -479 3 -622 13 -634 10 -14 76 -51 312 -178 33 -17 74
-40 90 -50 29 -18 31 -18 90 7 33 13 149 60 257 104 l196 79 39 -17 c181 -77
451 -183 464 -183 9 0 111 52 226 115 157 86 212 121 217 138 11 43 7 1237 -5
1237 -6 0 -39 -15 -73 -34 -33 -18 -128 -70 -211 -115 -144 -79 -152 -82 -186
-72 -50 15 -54 14 -67 -14 -19 -42 -15 -49 45 -72 l57 -23 170 94 c94 52 174
92 178 90 5 -3 8 -242 8 -532 l-1 -527 -180 -99 -181 -98 -36 14 c-21 9 -133
55 -251 103 l-213 88 -254 -102 -253 -102 -181 98 -180 98 0 532 c0 293 2 533
5 533 5 0 143 -74 296 -159 l56 -31 124 51 c249 103 345 141 369 148 16 5 39
1 65 -10 61 -28 66 -25 42 32 -17 39 -29 54 -56 65 -34 14 -39 13 -283 -86
-136 -55 -251 -100 -256 -100 -5 0 -104 52 -220 115 -117 63 -216 115 -222
115 -7 0 -10 -211 -10 -618z"/>
<path d="M1717 3323 c-4 -3 -7 -226 -7 -495 0 -424 2 -488 15 -488 8 0 17 10
20 23 4 17 1 955 -4 965 -2 4 -18 2 -24 -5z"/>
<path d="M2267 3153 c-4 -3 -7 -231 -7 -506 0 -443 2 -498 15 -487 13 11 15
80 15 506 0 272 -4 494 -8 494 -5 0 -12 -3 -15 -7z"/>
<path d="M1200 2651 c0 -316 4 -492 10 -496 7 -4 10 160 10 484 0 316 -4 492
-10 496 -7 4 -10 -160 -10 -484z"/>
<path d="M1522 1564 c-12 -8 -33 -37 -46 -63 -23 -44 -26 -47 -59 -43 -27 3
-41 -2 -70 -27 -64 -57 -74 -176 -22 -269 31 -55 31 -55 -1 -87 -21 -21 -25
-32 -20 -58 3 -17 13 -38 21 -47 22 -24 19 -32 -20 -63 -55 -44 -68 -132 -29
-209 20 -40 76 -69 144 -75 86 -8 145 29 177 112 35 91 -14 189 -122 243 -49
25 -78 55 -73 78 1 10 29 31 62 48 68 34 96 80 95 156 0 42 -5 62 -40 148 -13
31 -12 35 9 52 19 16 28 17 47 8 64 -29 77 65 14 97 -35 19 -39 19 -67 -1z
m-78 -200 c24 -9 39 -77 26 -123 -20 -74 -66 -82 -88 -16 -15 44 -4 101 24
130 18 17 17 17 38 9z m45 -510 c53 -44 39 -115 -27 -134 -52 -16 -89 0 -108
45 -13 32 -13 39 2 65 33 54 86 64 133 24z"/>
<path d="M1757 1560 c-48 -38 -62 -98 -62 -265 1 -149 16 -257 60 -408 16 -53
7 -86 -41 -156 -26 -39 -31 -70 -12 -89 22 -22 48 -13 69 23 12 19 26 35 32
35 7 0 20 -18 29 -40 18 -43 42 -59 66 -43 37 23 37 40 3 111 -38 79 -38 90 2
223 78 262 53 543 -56 609 -40 25 -58 25 -90 0z m85 -137 c28 -72 14 -438 -17
-438 -26 1 -55 417 -32 453 14 21 37 13 49 -15z"/>
<path d="M2991 1551 c-12 -7 -13 -33 -7 -138 l7 -130 -41 -18 c-53 -24 -133
-111 -148 -162 -20 -66 -15 -170 12 -234 33 -82 61 -116 116 -141 41 -19 50
-27 52 -53 3 -27 7 -30 40 -33 30 -3 38 1 44 20 11 32 8 826 -3 863 -10 32
-44 44 -72 26z m-1 -556 c0 -108 -4 -176 -10 -180 -20 -13 -78 60 -95 119 -18
62 -15 108 12 161 20 37 72 87 84 79 5 -3 9 -83 9 -179z"/>
<path d="M857 1473 c-9 -8 -7 -661 2 -692 9 -32 32 -45 64 -37 l27 6 0 270 c0
257 1 271 20 290 35 35 91 19 109 -31 14 -42 14 -239 -1 -392 -18 -185 -18
-180 19 -188 17 -3 37 -3 43 1 23 14 31 91 37 356 5 238 4 274 -11 305 -32 67
-109 97 -166 64 -38 -22 -49 -18 -56 20 -6 33 -9 35 -43 35 -21 0 -41 -3 -44
-7z"/>
<path d="M2085 1449 c-46 -41 -57 -83 -53 -214 3 -107 3 -109 28 -115 46 -12
50 -4 51 99 0 125 13 165 55 169 27 3 33 -2 48 -32 13 -28 16 -60 14 -163 l-3
-128 -76 -5 c-43 -3 -84 -12 -92 -19 -45 -37 -49 -172 -6 -217 32 -34 71 -54
107 -54 34 0 49 -14 54 -50 2 -21 9 -26 41 -28 24 -2 39 1 41 10 11 35 24 587
16 632 -26 130 -140 189 -225 115z m113 -465 c21 -6 23 -12 21 -60 -1 -29 -5
-58 -9 -64 -4 -6 -25 -10 -46 -8 -31 2 -41 9 -52 31 -15 32 -10 68 14 91 16
17 35 19 72 10z"/>
<path d="M2394 1467 c-3 -8 -4 -167 -2 -354 3 -374 4 -377 62 -371 l31 3 5
278 c5 261 6 280 24 293 27 19 59 18 87 -5 23 -18 24 -25 27 -168 2 -82 -3
-208 -11 -283 -8 -74 -13 -140 -10 -146 6 -16 72 -23 83 -9 16 20 30 198 32
421 l3 210 -27 42 c-35 52 -91 73 -141 53 -64 -26 -65 -25 -69 11 -3 31 -5 33
-46 36 -30 2 -44 -1 -48 -11z"/>
<path d="M546 1429 c-37 -29 -52 -63 -65 -148 -6 -41 -14 -78 -17 -82 -3 -5
-18 -9 -34 -9 -32 0 -46 -25 -36 -65 5 -18 14 -25 39 -27 l32 -3 11 -120 c13
-135 33 -194 76 -230 33 -28 97 -34 142 -13 43 19 70 90 74 195 5 101 -1 112
-52 99 -21 -5 -24 -14 -34 -91 -14 -106 -24 -127 -60 -123 -39 4 -52 42 -59
163 -8 137 -8 137 107 129 65 -4 90 -2 95 7 5 7 8 59 7 116 0 118 -16 163 -72
201 -44 29 -117 30 -154 1z m138 -112 c13 -65 15 -116 3 -124 -7 -6 -37 -7
-67 -4 l-55 6 1 53 c1 28 9 63 18 76 27 42 91 38 100 -7z"/>
<path d="M1613 533 c-10 -3 -13 -46 -13 -163 0 -164 2 -172 42 -175 17 -2 18
12 18 172 0 158 -1 173 -17 172 -10 0 -24 -3 -30 -6z"/>
<path d="M504 474 c3 -9 6 -73 6 -144 0 -125 0 -128 23 -132 12 -2 27 -3 32
-1 6 2 9 61 7 148 l-3 145 -36 0 c-28 0 -34 -3 -29 -16z"/>
<path d="M1333 403 c-8 -3 -3 -13 14 -28 24 -20 27 -30 27 -80 0 -50 -3 -60
-27 -81 l-28 -24 34 0 c54 0 79 27 85 90 8 90 -41 149 -105 123z"/>
<path d="M1861 396 c-69 -38 -66 -162 4 -194 25 -11 27 -11 20 5 -26 63 -24
153 5 188 15 18 3 19 -29 1z"/>
<path d="M1943 393 c24 -28 31 -101 13 -153 -8 -24 -14 -45 -13 -47 10 -9 55
29 71 61 16 32 17 44 7 76 -12 40 -52 80 -79 80 -13 0 -13 -2 1 -17z"/>
<path d="M2185 404 c-6 -2 -9 -44 -7 -104 l3 -100 29 0 29 0 3 90 c4 107 -10
134 -57 114z"/>
<path d="M2280 402 c0 -6 7 -12 15 -16 8 -3 12 -12 9 -20 -7 -18 9 -28 31 -20
10 4 15 16 13 33 -2 21 -9 27 -35 29 -18 2 -33 -1 -33 -6z"/>
<path d="M2511 384 c-76 -63 -38 -194 56 -194 22 0 49 9 63 20 l25 19 -41 -6
c-36 -5 -43 -2 -62 21 -22 29 -28 99 -11 143 11 29 8 29 -30 -3z"/>
<path d="M2599 391 c6 -11 11 -33 11 -50 0 -26 4 -31 25 -31 45 0 29 61 -23
89 -22 12 -23 11 -13 -8z"/>
<path d="M2820 404 c-12 -4 -14 -20 -12 -82 4 -108 8 -122 36 -122 24 0 25 3
28 87 5 125 2 131 -52 117z"/>
<path d="M2915 400 c-3 -5 1 -10 9 -10 8 0 16 -10 18 -22 4 -27 26 -30 41 -7
16 26 1 49 -32 49 -16 0 -33 -4 -36 -10z"/>
<path d="M870 396 c0 -3 15 -26 33 -50 17 -24 48 -67 67 -95 39 -56 51 -64 80
-53 18 7 14 15 -48 102 -59 82 -72 95 -100 98 -18 2 -32 1 -32 -2z"/>
<path d="M1230 238 l5 -163 28 -3 c30 -4 27 -30 28 226 l1 97 -34 3 -33 3 5
-163z"/>
</g>
</svg>
