<svg xmlns="http://www.w3.org/2000/svg" width="799" height="496" viewBox="0 0 799 496" version="1.1"><path d="M 402 65.669 C 397.420 67.641, 394.247 70.639, 391.903 75.210 C 388.287 82.260, 389.123 86.287, 399.696 112.761 L 409.391 137.040 419.148 112.770 C 426.609 94.210, 428.915 87.373, 428.952 83.710 C 429.090 69.962, 414.585 60.253, 402 65.669 M 406.199 77.558 C 402.063 79.298, 400.537 83.067, 402.079 87.738 C 404.308 94.494, 413.312 95.164, 416.594 88.819 C 420.331 81.592, 413.697 74.406, 406.199 77.558 M 286.243 153.944 L 286.500 218.144 292 221.146 C 295.025 222.797, 303.350 227.330, 310.500 231.220 C 317.650 235.109, 324.988 239.126, 326.807 240.146 C 328.626 241.165, 330.682 242, 331.375 242 C 332.068 242, 338.230 239.705, 345.068 236.899 C 351.906 234.093, 362.869 229.593, 369.432 226.899 C 375.995 224.205, 381.688 222, 382.084 222 C 382.479 222, 392.410 225.983, 404.151 230.850 C 435.377 243.795, 431.739 242.948, 439.181 239.001 C 442.657 237.158, 446.850 234.901, 448.500 233.985 C 450.150 233.070, 455.100 230.360, 459.500 227.964 C 463.900 225.567, 469.750 222.378, 472.500 220.876 L 477.500 218.144 477.757 154.102 L 478.015 90.060 472.507 93.030 C 469.478 94.663, 464.525 97.350, 461.500 99 C 428.638 116.925, 432.383 115.249, 429.042 113.522 C 424.585 111.217, 423.451 111.625, 421.662 116.177 C 420.760 118.475, 420.129 120.455, 420.261 120.577 C 420.392 120.700, 423.263 121.918, 426.640 123.285 L 432.781 125.771 449.948 116.385 C 459.390 111.223, 467.318 107, 467.566 107 C 467.815 107, 467.901 130.727, 467.759 159.728 L 467.500 212.455 460.500 216.312 C 456.650 218.433, 449.225 222.445, 444 225.228 C 438.775 228.011, 434.124 230.622, 433.665 231.029 C 433.206 231.436, 425.106 228.626, 415.665 224.784 C 391.740 215.048, 385.875 212.808, 383 212.313 C 381.387 212.036, 371.850 215.390, 356.112 221.771 L 331.725 231.659 326.112 228.634 C 323.026 226.971, 317.800 224.106, 314.500 222.268 C 311.200 220.430, 305.688 217.496, 302.250 215.748 L 296 212.571 296 159.785 C 296 130.753, 296.239 107, 296.532 107 C 296.824 107, 300.087 108.669, 303.782 110.709 C 307.477 112.748, 315.164 116.971, 320.865 120.092 L 331.231 125.766 337.365 123.296 C 340.739 121.938, 352.121 117.265, 362.658 112.912 L 381.815 104.997 387.428 107.145 C 390.515 108.327, 393.275 109.058, 393.562 108.772 C 393.849 108.485, 393.062 105.749, 391.814 102.691 C 389.772 97.690, 389.137 97.018, 385.472 95.992 C 381.601 94.908, 380.631 95.158, 365.949 101.015 C 357.452 104.405, 346.328 108.953, 341.229 111.120 L 331.958 115.061 321.229 109.381 C 315.328 106.257, 310.050 103.374, 309.500 102.975 C 308.950 102.575, 304 99.873, 298.500 96.971 C 293 94.069, 287.934 91.255, 287.243 90.718 C 286.235 89.937, 286.036 102.501, 286.243 153.944 M 379.667 109.667 C 379.300 110.033, 379 132.486, 379 159.561 L 379 208.788 381.499 208.644 L 383.999 208.500 383.999 158.750 C 384 111.174, 383.920 109, 382.167 109 C 381.158 109, 380.033 109.300, 379.667 109.667 M 435.750 125.809 C 434.111 126.125, 434 129.367, 434 177.073 C 434 205.621, 434.386 228, 434.878 228 C 437.830 228, 438.015 224.615, 437.759 175.372 C 437.516 128.466, 437.395 125.493, 435.750 125.809 M 328.241 177.195 C 328.443 216.231, 328.777 227.426, 329.750 227.750 C 330.739 228.080, 331 217.727, 331 178.190 C 331 134.554, 330.809 128.141, 329.491 127.635 C 328.155 127.122, 328.011 132.831, 328.241 177.195 M 360.266 285.214 C 359.037 285.807, 357.044 288.476, 355.837 291.146 C 353.722 295.826, 353.493 296, 349.470 296 C 338.276 296, 333.445 312.141, 340.460 326.107 L 343.075 331.313 340.537 333.961 C 337.484 337.148, 337.325 340.381, 340.006 344.778 L 342.005 348.057 338.564 351.078 C 334.189 354.919, 332.619 359.591, 333.514 366.101 C 334.689 374.644, 342.667 380.975, 352.282 380.994 C 355.614 381.001, 361.696 378.585, 364.320 376.212 C 367.395 373.431, 370 367.376, 370 363.008 C 370 354.896, 366.011 349.281, 356.392 343.852 C 347.344 338.746, 347.057 335.765, 355.242 331.923 C 362.934 328.312, 364.500 325.564, 364.500 315.673 C 364.500 308.958, 364.093 306.811, 362.218 303.639 C 359.822 299.584, 359.987 296.603, 362.665 295.575 C 363.539 295.240, 364.885 295.489, 365.656 296.130 C 366.706 297.001, 367.682 297.010, 369.530 296.168 C 371.479 295.280, 372 294.297, 372 291.507 C 372 288.590, 371.430 287.623, 368.750 285.989 C 365.127 283.780, 363.538 283.635, 360.266 285.214 M 384.298 285.199 C 378.671 287.917, 375.319 304.653, 377.083 321.225 C 377.625 326.326, 379.246 335.675, 380.683 342 C 384.595 359.211, 384.595 359.188, 381.303 365.198 C 379.705 368.114, 377.778 371.468, 377.020 372.652 C 375.826 374.516, 375.869 375.151, 377.344 377.402 C 380.200 381.761, 384.008 380.680, 387.190 374.607 L 388.672 371.779 391.215 376.639 C 394.046 382.050, 395.925 382.934, 399.549 380.560 C 402.721 378.481, 402.638 376.684, 399 368.660 C 395.483 360.903, 395.365 359.177, 397.898 352.500 C 402.025 341.622, 404.223 327.381, 403.757 314.541 C 403.238 300.232, 401.236 293.383, 395.945 287.822 C 392.113 283.794, 388.767 283.040, 384.298 285.199 M 506.334 287.571 C 506.003 288.435, 505.950 294.459, 506.218 300.956 L 506.704 312.770 500.248 317.015 C 492.323 322.225, 488.599 327.740, 487.068 336.528 C 485.946 342.973, 486.908 350.379, 489.884 358.198 C 491.461 362.340, 497.479 368.461, 501.965 370.484 C 505.286 371.982, 506 372.800, 506 375.107 C 506 377.517, 506.489 378.001, 509.492 378.565 C 515.686 379.726, 515.710 379.670, 516.533 362.323 C 517.499 341.984, 516.301 289.067, 514.835 287.301 C 513.284 285.432, 507.079 285.629, 506.334 287.571 M 294.441 294.418 C 292.626 295.744, 292.479 297.446, 292.178 320.668 C 291.848 346.080, 292.918 365.318, 294.764 367.164 C 295.806 368.206, 302.706 368.628, 303.628 367.705 C 303.900 367.433, 304.084 355.351, 304.037 340.855 C 303.964 318.351, 304.183 314.171, 305.533 312.250 C 307.564 309.359, 312.046 309.288, 314.595 312.106 C 316.317 314.009, 316.496 315.863, 316.454 331.356 C 316.429 340.785, 315.783 353.597, 315.019 359.826 C 313.449 372.622, 313.580 372.957, 320.172 372.985 C 323.442 372.998, 323.958 372.644, 324.879 369.750 C 326.307 365.263, 328.362 327.479, 327.756 316.855 C 327.220 307.454, 325.218 302.684, 320.518 299.603 C 317.456 297.597, 310.016 297.520, 307.441 299.468 C 304.615 301.606, 304 301.349, 304 298.035 C 304 293.448, 298.577 291.396, 294.441 294.418 M 448.444 294.417 C 446.646 295.732, 446.482 297.440, 446.173 318.167 C 445.821 341.693, 447.092 365.492, 448.791 367.191 C 449.849 368.249, 456.733 368.601, 457.688 367.645 C 457.993 367.340, 458.163 355.329, 458.067 340.953 C 457.917 318.629, 458.121 314.464, 459.468 312.408 C 461.475 309.345, 465.964 309.197, 468.595 312.107 C 470.325 314.020, 470.496 315.882, 470.454 332.357 C 470.429 342.336, 469.804 354.922, 469.066 360.326 C 467.582 371.178, 468.038 372.649, 473 373.029 C 477.318 373.361, 477.819 373.082, 478.880 369.750 C 481.447 361.687, 482.915 316.520, 480.873 308.411 C 479.288 302.116, 474.178 297.989, 468.022 298.032 C 465.535 298.049, 462.626 298.724, 461.559 299.532 C 458.671 301.716, 458 301.355, 458 297.617 C 458 294.953, 457.521 294.105, 455.750 293.630 C 452.261 292.695, 450.546 292.880, 448.444 294.417 M 417.893 295.497 C 412.574 298.388, 410 306.252, 410 319.615 C 410 329.229, 410.921 331, 415.919 331 C 420.491 331, 421.279 329.308, 420.362 321.455 C 419.598 314.910, 421.567 305.302, 423.933 304.036 C 426.201 302.822, 428.531 304.478, 429.955 308.315 C 431.095 311.387, 431.377 327.864, 430.375 332.875 C 429.753 335.987, 429.723 336, 423.309 336 C 419.767 336, 416.003 336.463, 414.945 337.030 C 411.840 338.691, 410 343.445, 410 349.802 C 410 359.243, 414.634 364.471, 424.132 365.745 C 427.332 366.174, 428.131 366.735, 428.598 368.884 C 429.719 374.036, 429.823 374.127, 434.241 373.808 L 438.500 373.500 439.174 366 C 439.545 361.875, 439.995 346.800, 440.174 332.500 L 440.500 306.500 437.791 301.892 C 436.301 299.357, 433.954 296.545, 432.576 295.642 C 429.495 293.623, 421.486 293.544, 417.893 295.497 M 265.500 297.359 C 259.337 300.206, 256.774 305.051, 255.507 316.250 C 254.857 321.989, 254.849 322, 251.473 322 C 248.370 322, 248.034 322.303, 247.403 325.663 C 246.560 330.157, 247.809 332.340, 251.602 333.009 L 254.491 333.518 255.578 345.509 C 256.615 356.956, 258.411 363.590, 261.214 366.326 C 268.677 373.613, 279.977 372.055, 283.687 363.228 C 285.566 358.757, 287.410 344.771, 286.565 341.402 C 286.076 339.455, 285.318 339, 282.563 339 C 276.513 339, 276 339.583, 276 346.458 C 276 352.884, 274.499 358.941, 272.586 360.235 C 270.660 361.538, 269.098 361.052, 267.877 358.771 C 266.358 355.933, 264.812 339.571, 265.642 335.119 L 266.272 331.738 275.039 332.238 C 279.861 332.513, 284.237 332.459, 284.764 332.119 C 287.940 330.068, 287.073 308.867, 283.606 303.776 C 279.116 297.184, 271.627 294.530, 265.500 297.359 M 388.667 298.667 C 386.719 300.615, 388.981 342, 391.035 342 C 392.512 342, 394.269 323.661, 393.741 313.757 C 393.066 301.103, 391.346 295.987, 388.667 298.667 M 349.226 307.250 C 346.928 310.071, 346.041 316.162, 347.441 319.513 C 349.336 324.048, 350.960 324.768, 353.162 322.048 C 355.309 319.397, 355.749 309.149, 353.800 307.200 C 352.254 305.654, 350.511 305.673, 349.226 307.250 M 268.403 309.507 C 266.257 311.652, 265.939 312.769, 266.198 317.257 L 266.500 322.500 271.750 322.802 L 277 323.105 277 317.275 C 277 311.170, 275.132 307, 272.398 307 C 271.579 307, 269.781 308.128, 268.403 309.507 M 503.607 327.095 C 500.790 329.310, 497.730 334.647, 496.613 339.287 C 495.085 345.641, 501.367 360, 505.674 360 C 506.725 360, 507 356.366, 507 342.500 C 507 332.875, 506.836 325, 506.635 325 C 506.434 325, 505.071 325.943, 503.607 327.095 M 421.200 345.200 C 420.540 345.860, 420 348.319, 420 350.665 C 420 355.309, 421.698 357, 426.362 357 C 428.631 357, 428.917 356.510, 429.534 351.576 C 429.907 348.592, 429.912 345.667, 429.547 345.076 C 428.647 343.620, 422.691 343.709, 421.200 345.200 M 346.635 357.073 C 341.059 361.459, 344.687 370, 352.126 370 C 359.340 370, 362.583 362.492, 357.545 357.455 C 354.509 354.418, 350.201 354.267, 346.635 357.073 M 367.917 388.413 C 367.688 388.641, 367.725 396.403, 368 405.663 L 368.500 422.500 372.188 422.807 C 375.707 423.099, 375.859 422.985, 375.507 420.307 C 375.304 418.763, 375.107 410.863, 375.069 402.750 L 375 388 371.667 388 C 369.833 388, 368.146 388.186, 367.917 388.413 M 256 392.970 C 256 393.537, 256.450 394, 257 394 C 257.617 394, 258 399.100, 258 407.300 C 258 416.311, 258.387 420.987, 259.200 421.800 C 259.985 422.585, 264.133 423, 271.200 423 L 282 423 282 420.277 L 282 417.555 280.411 419.823 C 279.006 421.829, 278.112 422.057, 272.661 421.795 L 266.500 421.500 266.269 407.750 L 266.037 394 272.462 394 C 277.978 394, 279.115 394.318, 280.505 396.250 L 282.124 398.500 281.812 395.500 L 281.500 392.500 268.750 392.220 C 260.489 392.039, 256 392.303, 256 392.970 M 395.325 401.459 C 383.052 406.798, 389.089 426.082, 402.260 423.611 C 413.545 421.494, 415.746 406.960, 405.530 402.015 C 400.673 399.663, 399.590 399.604, 395.325 401.459 M 436.057 401.424 C 434.316 402.388, 433.142 402.481, 431.967 401.747 C 431.020 401.156, 428.717 401.018, 426.556 401.423 C 423.376 402.020, 423.038 402.312, 424.370 403.315 C 425.559 404.209, 426.014 406.713, 426.223 413.500 L 426.500 422.500 430 422.798 L 433.500 423.095 433.181 414.120 C 432.895 406.080, 433.064 405.036, 434.799 404.107 C 437.023 402.917, 438 403.546, 438 406.167 C 438 407.175, 438.563 408.053, 439.250 408.118 C 443.390 408.511, 445.336 406.746, 444.342 403.500 C 443.220 399.831, 440.269 399.091, 436.057 401.424 M 499.250 401.989 C 496.598 403.606, 496 403.697, 496 402.485 C 496 401.515, 495.047 401.024, 493.250 401.070 C 490.423 401.143, 485.509 402.804, 487.750 402.930 C 488.645 402.980, 489 405.388, 489 411.418 C 489 422.455, 489.262 423.018, 494.357 422.921 C 496.636 422.878, 497.938 422.615, 497.250 422.338 C 496.399 421.994, 496 419.326, 496 413.973 C 496 407.050, 496.258 405.933, 498.163 404.598 C 500.565 402.916, 502.425 403.450, 501.605 405.586 C 500.870 407.503, 504.103 409.081, 506.276 407.866 C 508.262 406.754, 508.561 402.961, 506.800 401.200 C 505.093 399.493, 502.982 399.714, 499.250 401.989 M 293.737 402.750 C 296.265 405.008, 302 412.543, 302 413.606 C 302 414.056, 300.106 416.354, 297.792 418.712 C 293.653 422.930, 293.626 423, 296.198 423 C 298.208 423, 298.706 422.590, 298.349 421.228 C 297.936 419.649, 302.504 413.961, 303.287 415.079 C 308.576 422.637, 309.048 423, 313.590 423 C 318.054 423, 318.068 422.989, 316.188 420.971 C 315.148 419.855, 312.890 416.983, 311.170 414.587 L 308.042 410.232 312.341 405.616 L 316.640 401 313.914 401 C 311.826 401, 311.284 401.410, 311.601 402.750 C 311.829 403.712, 311.106 405.625, 309.995 407 C 307.995 409.475, 307.960 409.480, 306.447 407.500 C 301.882 401.524, 301.072 401, 296.396 401 C 291.919 401, 291.838 401.053, 293.737 402.750 M 331.010 401.997 C 329.329 402.394, 328.923 402.834, 329.760 403.352 C 330.653 403.904, 331 408.131, 331 418.477 C 331 426.375, 331.273 433.548, 331.607 434.418 C 332.024 435.504, 333.497 436, 336.307 436 C 339.490 436, 340.133 435.733, 339.200 434.800 C 338.540 434.140, 338 431.224, 338 428.319 L 338 423.038 342.316 423.630 C 345.925 424.125, 347.083 423.832, 349.394 421.845 C 352.675 419.023, 353.948 414.015, 352.786 408.500 C 351.512 402.455, 349.263 401.107, 340.721 401.271 C 336.749 401.347, 332.380 401.674, 331.010 401.997 M 460.110 402.396 C 455.172 405.133, 453.596 412.239, 456.548 418.460 C 459.112 423.863, 465.542 425.565, 471.064 422.303 C 475.741 419.540, 475.770 416.447, 471.096 418.949 C 468.407 420.388, 465.089 419.072, 463.460 415.923 C 462.657 414.370, 462 412.852, 462 412.550 C 462 412.247, 464.898 412, 468.441 412 C 471.984 412, 475.148 411.570, 475.473 411.044 C 476.403 409.539, 473.382 403.275, 471.150 402.080 C 468.425 400.622, 463.032 400.776, 460.110 402.396 M 397.161 404.547 C 395.720 407.708, 395.642 417.462, 397.035 420.066 C 397.605 421.130, 398.939 422, 400 422 C 401.061 422, 402.395 421.130, 402.965 420.066 C 404.451 417.289, 404.201 405.848, 402.608 403.750 C 400.719 401.261, 398.510 401.584, 397.161 404.547 M 462.975 404.565 C 461.273 409.044, 461.717 410, 465.500 410 C 469.283 410, 469.727 409.044, 468.025 404.565 C 467.488 403.154, 466.352 402, 465.500 402 C 464.648 402, 463.512 403.154, 462.975 404.565 M 338 412.393 C 338 419.448, 338.278 420.893, 339.741 421.454 C 340.873 421.889, 342.057 421.413, 343.123 420.096 C 347.391 414.826, 345.661 404, 340.551 404 C 338.019 404, 338 404.062, 338 412.393 M 274 407.032 C 272.667 407.892, 272.667 408.108, 274 408.968 C 274.967 409.592, 275.618 409.592, 275.833 408.968 C 276.494 407.049, 275.538 406.040, 274 407.032" stroke="none" fill="#f04a42" fill-rule="evenodd"/><path d="M -0 248.001 L -0 496.002 399.750 495.751 L 799.500 495.500 799.752 247.750 L 800.004 0 400.002 0 L 0 0 -0 248.001 M 0.492 248.500 C 0.492 384.900, 0.608 440.551, 0.750 372.170 C 0.892 303.788, 0.892 192.188, 0.750 124.170 C 0.608 56.151, 0.492 112.100, 0.492 248.500 M 402 65.669 C 397.420 67.641, 394.247 70.639, 391.903 75.210 C 388.287 82.260, 389.123 86.287, 399.696 112.761 L 409.391 137.040 419.148 112.770 C 426.609 94.210, 428.915 87.373, 428.952 83.710 C 429.090 69.962, 414.585 60.253, 402 65.669 M 406.199 77.558 C 402.063 79.298, 400.537 83.067, 402.079 87.738 C 404.308 94.494, 413.312 95.164, 416.594 88.819 C 420.331 81.592, 413.697 74.406, 406.199 77.558 M 286.243 153.944 L 286.500 218.144 292 221.146 C 295.025 222.797, 303.350 227.330, 310.500 231.220 C 317.650 235.109, 324.988 239.126, 326.807 240.146 C 328.626 241.165, 330.682 242, 331.375 242 C 332.068 242, 338.230 239.705, 345.068 236.899 C 351.906 234.093, 362.869 229.593, 369.432 226.899 C 375.995 224.205, 381.688 222, 382.084 222 C 382.479 222, 392.410 225.983, 404.151 230.850 C 435.377 243.795, 431.739 242.948, 439.181 239.001 C 442.657 237.158, 446.850 234.901, 448.500 233.985 C 450.150 233.070, 455.100 230.360, 459.500 227.964 C 463.900 225.567, 469.750 222.378, 472.500 220.876 L 477.500 218.144 477.757 154.102 L 478.015 90.060 472.507 93.030 C 469.478 94.663, 464.525 97.350, 461.500 99 C 428.638 116.925, 432.383 115.249, 429.042 113.522 C 424.585 111.217, 423.451 111.625, 421.662 116.177 C 420.760 118.475, 420.129 120.455, 420.261 120.577 C 420.392 120.700, 423.263 121.918, 426.640 123.285 L 432.781 125.771 449.948 116.385 C 459.390 111.223, 467.318 107, 467.566 107 C 467.815 107, 467.901 130.727, 467.759 159.728 L 467.500 212.455 460.500 216.312 C 456.650 218.433, 449.225 222.445, 444 225.228 C 438.775 228.011, 434.124 230.622, 433.665 231.029 C 433.206 231.436, 425.106 228.626, 415.665 224.784 C 391.740 215.048, 385.875 212.808, 383 212.313 C 381.387 212.036, 371.850 215.390, 356.112 221.771 L 331.725 231.659 326.112 228.634 C 323.026 226.971, 317.800 224.106, 314.500 222.268 C 311.200 220.430, 305.688 217.496, 302.250 215.748 L 296 212.571 296 159.785 C 296 130.753, 296.239 107, 296.532 107 C 296.824 107, 300.087 108.669, 303.782 110.709 C 307.477 112.748, 315.164 116.971, 320.865 120.092 L 331.231 125.766 337.365 123.296 C 340.739 121.938, 352.121 117.265, 362.658 112.912 L 381.815 104.997 387.428 107.145 C 390.515 108.327, 393.275 109.058, 393.562 108.772 C 393.849 108.485, 393.062 105.749, 391.814 102.691 C 389.772 97.690, 389.137 97.018, 385.472 95.992 C 381.601 94.908, 380.631 95.158, 365.949 101.015 C 357.452 104.405, 346.328 108.953, 341.229 111.120 L 331.958 115.061 321.229 109.381 C 315.328 106.257, 310.050 103.374, 309.500 102.975 C 308.950 102.575, 304 99.873, 298.500 96.971 C 293 94.069, 287.934 91.255, 287.243 90.718 C 286.235 89.937, 286.036 102.501, 286.243 153.944 M 379.667 109.667 C 379.300 110.033, 379 132.486, 379 159.561 L 379 208.788 381.499 208.644 L 383.999 208.500 383.999 158.750 C 384 111.174, 383.920 109, 382.167 109 C 381.158 109, 380.033 109.300, 379.667 109.667 M 435.750 125.809 C 434.111 126.125, 434 129.367, 434 177.073 C 434 205.621, 434.386 228, 434.878 228 C 437.830 228, 438.015 224.615, 437.759 175.372 C 437.516 128.466, 437.395 125.493, 435.750 125.809 M 328.241 177.195 C 328.443 216.231, 328.777 227.426, 329.750 227.750 C 330.739 228.080, 331 217.727, 331 178.190 C 331 134.554, 330.809 128.141, 329.491 127.635 C 328.155 127.122, 328.011 132.831, 328.241 177.195 M 360.266 285.214 C 359.037 285.807, 357.044 288.476, 355.837 291.146 C 353.722 295.826, 353.493 296, 349.470 296 C 338.276 296, 333.445 312.141, 340.460 326.107 L 343.075 331.313 340.537 333.961 C 337.484 337.148, 337.325 340.381, 340.006 344.778 L 342.005 348.057 338.564 351.078 C 334.189 354.919, 332.619 359.591, 333.514 366.101 C 334.689 374.644, 342.667 380.975, 352.282 380.994 C 355.614 381.001, 361.696 378.585, 364.320 376.212 C 367.395 373.431, 370 367.376, 370 363.008 C 370 354.896, 366.011 349.281, 356.392 343.852 C 347.344 338.746, 347.057 335.765, 355.242 331.923 C 362.934 328.312, 364.500 325.564, 364.500 315.673 C 364.500 308.958, 364.093 306.811, 362.218 303.639 C 359.822 299.584, 359.987 296.603, 362.665 295.575 C 363.539 295.240, 364.885 295.489, 365.656 296.130 C 366.706 297.001, 367.682 297.010, 369.530 296.168 C 371.479 295.280, 372 294.297, 372 291.507 C 372 288.590, 371.430 287.623, 368.750 285.989 C 365.127 283.780, 363.538 283.635, 360.266 285.214 M 384.298 285.199 C 378.671 287.917, 375.319 304.653, 377.083 321.225 C 377.625 326.326, 379.246 335.675, 380.683 342 C 384.595 359.211, 384.595 359.188, 381.303 365.198 C 379.705 368.114, 377.778 371.468, 377.020 372.652 C 375.826 374.516, 375.869 375.151, 377.344 377.402 C 380.200 381.761, 384.008 380.680, 387.190 374.607 L 388.672 371.779 391.215 376.639 C 394.046 382.050, 395.925 382.934, 399.549 380.560 C 402.721 378.481, 402.638 376.684, 399 368.660 C 395.483 360.903, 395.365 359.177, 397.898 352.500 C 402.025 341.622, 404.223 327.381, 403.757 314.541 C 403.238 300.232, 401.236 293.383, 395.945 287.822 C 392.113 283.794, 388.767 283.040, 384.298 285.199 M 506.334 287.571 C 506.003 288.435, 505.950 294.459, 506.218 300.956 L 506.704 312.770 500.248 317.015 C 492.323 322.225, 488.599 327.740, 487.068 336.528 C 485.946 342.973, 486.908 350.379, 489.884 358.198 C 491.461 362.340, 497.479 368.461, 501.965 370.484 C 505.286 371.982, 506 372.800, 506 375.107 C 506 377.517, 506.489 378.001, 509.492 378.565 C 515.686 379.726, 515.710 379.670, 516.533 362.323 C 517.499 341.984, 516.301 289.067, 514.835 287.301 C 513.284 285.432, 507.079 285.629, 506.334 287.571 M 294.441 294.418 C 292.626 295.744, 292.479 297.446, 292.178 320.668 C 291.848 346.080, 292.918 365.318, 294.764 367.164 C 295.806 368.206, 302.706 368.628, 303.628 367.705 C 303.900 367.433, 304.084 355.351, 304.037 340.855 C 303.964 318.351, 304.183 314.171, 305.533 312.250 C 307.564 309.359, 312.046 309.288, 314.595 312.106 C 316.317 314.009, 316.496 315.863, 316.454 331.356 C 316.429 340.785, 315.783 353.597, 315.019 359.826 C 313.449 372.622, 313.580 372.957, 320.172 372.985 C 323.442 372.998, 323.958 372.644, 324.879 369.750 C 326.307 365.263, 328.362 327.479, 327.756 316.855 C 327.220 307.454, 325.218 302.684, 320.518 299.603 C 317.456 297.597, 310.016 297.520, 307.441 299.468 C 304.615 301.606, 304 301.349, 304 298.035 C 304 293.448, 298.577 291.396, 294.441 294.418 M 448.444 294.417 C 446.646 295.732, 446.482 297.440, 446.173 318.167 C 445.821 341.693, 447.092 365.492, 448.791 367.191 C 449.849 368.249, 456.733 368.601, 457.688 367.645 C 457.993 367.340, 458.163 355.329, 458.067 340.953 C 457.917 318.629, 458.121 314.464, 459.468 312.408 C 461.475 309.345, 465.964 309.197, 468.595 312.107 C 470.325 314.020, 470.496 315.882, 470.454 332.357 C 470.429 342.336, 469.804 354.922, 469.066 360.326 C 467.582 371.178, 468.038 372.649, 473 373.029 C 477.318 373.361, 477.819 373.082, 478.880 369.750 C 481.447 361.687, 482.915 316.520, 480.873 308.411 C 479.288 302.116, 474.178 297.989, 468.022 298.032 C 465.535 298.049, 462.626 298.724, 461.559 299.532 C 458.671 301.716, 458 301.355, 458 297.617 C 458 294.953, 457.521 294.105, 455.750 293.630 C 452.261 292.695, 450.546 292.880, 448.444 294.417 M 417.893 295.497 C 412.574 298.388, 410 306.252, 410 319.615 C 410 329.229, 410.921 331, 415.919 331 C 420.491 331, 421.279 329.308, 420.362 321.455 C 419.598 314.910, 421.567 305.302, 423.933 304.036 C 426.201 302.822, 428.531 304.478, 429.955 308.315 C 431.095 311.387, 431.377 327.864, 430.375 332.875 C 429.753 335.987, 429.723 336, 423.309 336 C 419.767 336, 416.003 336.463, 414.945 337.030 C 411.840 338.691, 410 343.445, 410 349.802 C 410 359.243, 414.634 364.471, 424.132 365.745 C 427.332 366.174, 428.131 366.735, 428.598 368.884 C 429.719 374.036, 429.823 374.127, 434.241 373.808 L 438.500 373.500 439.174 366 C 439.545 361.875, 439.995 346.800, 440.174 332.500 L 440.500 306.500 437.791 301.892 C 436.301 299.357, 433.954 296.545, 432.576 295.642 C 429.495 293.623, 421.486 293.544, 417.893 295.497 M 265.500 297.359 C 259.337 300.206, 256.774 305.051, 255.507 316.250 C 254.857 321.989, 254.849 322, 251.473 322 C 248.370 322, 248.034 322.303, 247.403 325.663 C 246.560 330.157, 247.809 332.340, 251.602 333.009 L 254.491 333.518 255.578 345.509 C 256.615 356.956, 258.411 363.590, 261.214 366.326 C 268.677 373.613, 279.977 372.055, 283.687 363.228 C 285.566 358.757, 287.410 344.771, 286.565 341.402 C 286.076 339.455, 285.318 339, 282.563 339 C 276.513 339, 276 339.583, 276 346.458 C 276 352.884, 274.499 358.941, 272.586 360.235 C 270.660 361.538, 269.098 361.052, 267.877 358.771 C 266.358 355.933, 264.812 339.571, 265.642 335.119 L 266.272 331.738 275.039 332.238 C 279.861 332.513, 284.237 332.459, 284.764 332.119 C 287.940 330.068, 287.073 308.867, 283.606 303.776 C 279.116 297.184, 271.627 294.530, 265.500 297.359 M 388.667 298.667 C 386.719 300.615, 388.981 342, 391.035 342 C 392.512 342, 394.269 323.661, 393.741 313.757 C 393.066 301.103, 391.346 295.987, 388.667 298.667 M 349.226 307.250 C 346.928 310.071, 346.041 316.162, 347.441 319.513 C 349.336 324.048, 350.960 324.768, 353.162 322.048 C 355.309 319.397, 355.749 309.149, 353.800 307.200 C 352.254 305.654, 350.511 305.673, 349.226 307.250 M 268.403 309.507 C 266.257 311.652, 265.939 312.769, 266.198 317.257 L 266.500 322.500 271.750 322.802 L 277 323.105 277 317.275 C 277 311.170, 275.132 307, 272.398 307 C 271.579 307, 269.781 308.128, 268.403 309.507 M 503.607 327.095 C 500.790 329.310, 497.730 334.647, 496.613 339.287 C 495.085 345.641, 501.367 360, 505.674 360 C 506.725 360, 507 356.366, 507 342.500 C 507 332.875, 506.836 325, 506.635 325 C 506.434 325, 505.071 325.943, 503.607 327.095 M 421.200 345.200 C 420.540 345.860, 420 348.319, 420 350.665 C 420 355.309, 421.698 357, 426.362 357 C 428.631 357, 428.917 356.510, 429.534 351.576 C 429.907 348.592, 429.912 345.667, 429.547 345.076 C 428.647 343.620, 422.691 343.709, 421.200 345.200 M 346.635 357.073 C 341.059 361.459, 344.687 370, 352.126 370 C 359.340 370, 362.583 362.492, 357.545 357.455 C 354.509 354.418, 350.201 354.267, 346.635 357.073 M 367.917 388.413 C 367.688 388.641, 367.725 396.403, 368 405.663 L 368.500 422.500 372.188 422.807 C 375.707 423.099, 375.859 422.985, 375.507 420.307 C 375.304 418.763, 375.107 410.863, 375.069 402.750 L 375 388 371.667 388 C 369.833 388, 368.146 388.186, 367.917 388.413 M 256 392.970 C 256 393.537, 256.450 394, 257 394 C 257.617 394, 258 399.100, 258 407.300 C 258 416.311, 258.387 420.987, 259.200 421.800 C 259.985 422.585, 264.133 423, 271.200 423 L 282 423 282 420.277 L 282 417.555 280.411 419.823 C 279.006 421.829, 278.112 422.057, 272.661 421.795 L 266.500 421.500 266.269 407.750 L 266.037 394 272.462 394 C 277.978 394, 279.115 394.318, 280.505 396.250 L 282.124 398.500 281.812 395.500 L 281.500 392.500 268.750 392.220 C 260.489 392.039, 256 392.303, 256 392.970 M 395.325 401.459 C 383.052 406.798, 389.089 426.082, 402.260 423.611 C 413.545 421.494, 415.746 406.960, 405.530 402.015 C 400.673 399.663, 399.590 399.604, 395.325 401.459 M 436.057 401.424 C 434.316 402.388, 433.142 402.481, 431.967 401.747 C 431.020 401.156, 428.717 401.018, 426.556 401.423 C 423.376 402.020, 423.038 402.312, 424.370 403.315 C 425.559 404.209, 426.014 406.713, 426.223 413.500 L 426.500 422.500 430 422.798 L 433.500 423.095 433.181 414.120 C 432.895 406.080, 433.064 405.036, 434.799 404.107 C 437.023 402.917, 438 403.546, 438 406.167 C 438 407.175, 438.563 408.053, 439.250 408.118 C 443.390 408.511, 445.336 406.746, 444.342 403.500 C 443.220 399.831, 440.269 399.091, 436.057 401.424 M 499.250 401.989 C 496.598 403.606, 496 403.697, 496 402.485 C 496 401.515, 495.047 401.024, 493.250 401.070 C 490.423 401.143, 485.509 402.804, 487.750 402.930 C 488.645 402.980, 489 405.388, 489 411.418 C 489 422.455, 489.262 423.018, 494.357 422.921 C 496.636 422.878, 497.938 422.615, 497.250 422.338 C 496.399 421.994, 496 419.326, 496 413.973 C 496 407.050, 496.258 405.933, 498.163 404.598 C 500.565 402.916, 502.425 403.450, 501.605 405.586 C 500.870 407.503, 504.103 409.081, 506.276 407.866 C 508.262 406.754, 508.561 402.961, 506.800 401.200 C 505.093 399.493, 502.982 399.714, 499.250 401.989 M 293.737 402.750 C 296.265 405.008, 302 412.543, 302 413.606 C 302 414.056, 300.106 416.354, 297.792 418.712 C 293.653 422.930, 293.626 423, 296.198 423 C 298.208 423, 298.706 422.590, 298.349 421.228 C 297.936 419.649, 302.504 413.961, 303.287 415.079 C 308.576 422.637, 309.048 423, 313.590 423 C 318.054 423, 318.068 422.989, 316.188 420.971 C 315.148 419.855, 312.890 416.983, 311.170 414.587 L 308.042 410.232 312.341 405.616 L 316.640 401 313.914 401 C 311.826 401, 311.284 401.410, 311.601 402.750 C 311.829 403.712, 311.106 405.625, 309.995 407 C 307.995 409.475, 307.960 409.480, 306.447 407.500 C 301.882 401.524, 301.072 401, 296.396 401 C 291.919 401, 291.838 401.053, 293.737 402.750 M 331.010 401.997 C 329.329 402.394, 328.923 402.834, 329.760 403.352 C 330.653 403.904, 331 408.131, 331 418.477 C 331 426.375, 331.273 433.548, 331.607 434.418 C 332.024 435.504, 333.497 436, 336.307 436 C 339.490 436, 340.133 435.733, 339.200 434.800 C 338.540 434.140, 338 431.224, 338 428.319 L 338 423.038 342.316 423.630 C 345.925 424.125, 347.083 423.832, 349.394 421.845 C 352.675 419.023, 353.948 414.015, 352.786 408.500 C 351.512 402.455, 349.263 401.107, 340.721 401.271 C 336.749 401.347, 332.380 401.674, 331.010 401.997 M 460.110 402.396 C 455.172 405.133, 453.596 412.239, 456.548 418.460 C 459.112 423.863, 465.542 425.565, 471.064 422.303 C 475.741 419.540, 475.770 416.447, 471.096 418.949 C 468.407 420.388, 465.089 419.072, 463.460 415.923 C 462.657 414.370, 462 412.852, 462 412.550 C 462 412.247, 464.898 412, 468.441 412 C 471.984 412, 475.148 411.570, 475.473 411.044 C 476.403 409.539, 473.382 403.275, 471.150 402.080 C 468.425 400.622, 463.032 400.776, 460.110 402.396 M 397.161 404.547 C 395.720 407.708, 395.642 417.462, 397.035 420.066 C 397.605 421.130, 398.939 422, 400 422 C 401.061 422, 402.395 421.130, 402.965 420.066 C 404.451 417.289, 404.201 405.848, 402.608 403.750 C 400.719 401.261, 398.510 401.584, 397.161 404.547 M 462.975 404.565 C 461.273 409.044, 461.717 410, 465.500 410 C 469.283 410, 469.727 409.044, 468.025 404.565 C 467.488 403.154, 466.352 402, 465.500 402 C 464.648 402, 463.512 403.154, 462.975 404.565 M 338 412.393 C 338 419.448, 338.278 420.893, 339.741 421.454 C 340.873 421.889, 342.057 421.413, 343.123 420.096 C 347.391 414.826, 345.661 404, 340.551 404 C 338.019 404, 338 404.062, 338 412.393 M 274 407.032 C 272.667 407.892, 272.667 408.108, 274 408.968 C 274.967 409.592, 275.618 409.592, 275.833 408.968 C 276.494 407.049, 275.538 406.040, 274 407.032" stroke="none" fill="#f8f7f7" fill-rule="evenodd"/></svg>